<svg width="46" height="46" viewBox="0 0 46 46" fill="none" xmlns="http://www.w3.org/2000/svg">
<g clip-path="url(#clip0_744_14446)">
<mask id="mask0_744_14446" style="mask-type:luminance" maskUnits="userSpaceOnUse" x="0" y="0" width="46" height="46">
<path d="M46 0H0V46H46V0Z" fill="white" style="fill:white;fill-opacity:1;"/>
</mask>
<g mask="url(#mask0_744_14446)">
<path d="M-0.59375 46.5376V-65.3164C-0.268391 -65.3164 0.0569661 -65.315 0.382312 -65.3121L-0.59375 46.5376Z" fill="white" style="fill:white;fill-opacity:1;"/>
<path d="M-0.59375 46.5372L0.382312 -65.3125C0.707684 -65.3097 1.03304 -65.3054 1.35837 -65.2997L-0.59375 46.5372Z" fill="white" style="fill:white;fill-opacity:1;"/>
<path d="M-0.59375 46.5361L1.35837 -65.3008C1.68371 -65.2951 2.00902 -65.288 2.33429 -65.2795L-0.59375 46.5361Z" fill="white" style="fill:white;fill-opacity:1;"/>
<path d="M-0.59375 46.5383L2.33429 -65.2773C2.65955 -65.2688 2.98476 -65.2589 3.30992 -65.2476L-0.59375 46.5383Z" fill="white" style="fill:white;fill-opacity:1;"/>
<path d="M-0.59375 46.5359L3.30993 -65.25C3.63509 -65.2386 3.96021 -65.2258 4.28527 -65.2116L-0.59375 46.5359Z" fill="white" style="fill:white;fill-opacity:1;"/>
<path d="M-0.59375 46.5366L4.28527 -65.2109C4.61031 -65.1967 4.93528 -65.1811 5.26018 -65.1641L-0.59375 46.5366Z" fill="white" style="fill:white;fill-opacity:1;"/>
<path d="M-0.59375 46.5366L5.26018 -65.1641C5.58513 -65.147 5.91001 -65.1286 6.23481 -65.1087L-0.59375 46.5366Z" fill="white" style="fill:white;fill-opacity:1;"/>
<path d="M-0.59375 46.5359L6.23481 -65.1094C6.55958 -65.0895 6.88427 -65.0682 7.20886 -65.0455L-0.59375 46.5359Z" fill="white" style="fill:white;fill-opacity:1;"/>
<path d="M-0.59375 46.5385L7.20886 -65.043C7.5334 -65.0203 7.85785 -64.9962 8.18219 -64.9707L-0.59375 46.5385Z" fill="white" style="fill:white;fill-opacity:1;"/>
<path d="M-0.59375 46.5365L8.18219 -64.9727C8.50656 -64.9471 8.83081 -64.9202 9.15494 -64.8919L-0.59375 46.5365Z" fill="white" style="fill:white;fill-opacity:1;"/>
<path d="M-0.59375 46.5378L9.15494 -64.8906C9.47908 -64.8622 9.8031 -64.8324 10.127 -64.8012L-0.59375 46.5378Z" fill="white" style="fill:white;fill-opacity:1;"/>
<path d="M-0.59375 46.5382L10.127 -64.8008C10.4508 -64.7696 10.7746 -64.737 11.0982 -64.703L-0.59375 46.5382Z" fill="white" style="fill:white;fill-opacity:1;"/>
<path d="M-0.59375 46.5381L11.0982 -64.7031C11.4217 -64.6691 11.7452 -64.6337 12.0685 -64.5969L-0.59375 46.5381Z" fill="#0C0003" style="fill:#0C0003;fill:color(display-p3 0.0471 0.0000 0.0118);fill-opacity:1;"/>
<path d="M-0.59375 46.5373L12.0685 -64.5977C12.3917 -64.5608 12.7148 -64.5226 13.0378 -64.4829L-0.59375 46.5373Z" fill="#210107" style="fill:#210107;fill:color(display-p3 0.1294 0.0039 0.0275);fill-opacity:1;"/>
<path d="M-0.59375 46.5359L13.0378 -64.4844C13.3607 -64.4447 13.6835 -64.4037 14.0061 -64.3612L-0.59375 46.5359Z" fill="#36010C" style="fill:#36010C;fill:color(display-p3 0.2118 0.0039 0.0471);fill-opacity:1;"/>
<path d="M-0.59375 46.5377L14.0061 -64.3594C14.3287 -64.3169 14.6511 -64.273 14.9734 -64.2277L-0.59375 46.5377Z" fill="#4B0110" style="fill:#4B0110;fill:color(display-p3 0.2941 0.0039 0.0627);fill-opacity:1;"/>
<path d="M-0.59375 46.5388L14.9734 -64.2266C15.2956 -64.1813 15.6176 -64.1346 15.9394 -64.0866L-0.59375 46.5388Z" fill="#610215" style="fill:#610215;fill:color(display-p3 0.3804 0.0078 0.0824);fill-opacity:1;"/>
<path d="M-0.59375 46.5395L15.9394 -64.0859C16.2612 -64.0378 16.5827 -63.9883 16.9041 -63.9374L-0.59375 46.5395Z" fill="#760219" style="fill:#760219;fill:color(display-p3 0.4627 0.0078 0.0980);fill-opacity:1;"/>
<path d="M-0.59375 46.5394L16.9041 -63.9375C17.2254 -63.8866 17.5466 -63.8343 17.8675 -63.7805L-0.59375 46.5394Z" fill="#8B031E" style="fill:#8B031E;fill:color(display-p3 0.5451 0.0118 0.1176);fill-opacity:1;"/>
<path d="M-0.59375 46.5387L17.8675 -63.7812C18.1884 -63.7275 18.509 -63.6724 18.8295 -63.6159L-0.59375 46.5387Z" fill="#A00323" style="fill:#A00323;fill:color(display-p3 0.6275 0.0118 0.1373);fill-opacity:1;"/>
<path d="M-0.59375 46.5374L18.8295 -63.6172C19.1499 -63.5607 19.4701 -63.5028 19.79 -63.4435L-0.59375 46.5374Z" fill="#B50427" style="fill:#B50427;fill:color(display-p3 0.7098 0.0157 0.1529);fill-opacity:1;"/>
<path d="M-0.59375 46.5396L19.79 -63.4414C20.1099 -63.3821 20.4296 -63.3215 20.749 -63.2594L-0.59375 46.5396Z" fill="#CA042C" style="fill:#CA042C;fill:color(display-p3 0.7922 0.0157 0.1725);fill-opacity:1;"/>
<path d="M-0.59375 46.5373L20.749 -63.2617C21.0684 -63.1996 21.3875 -63.1361 21.7063 -63.0712L-0.59375 46.5373Z" fill="#DF0430" style="fill:#DF0430;fill:color(display-p3 0.8745 0.0157 0.1882);fill-opacity:1;"/>
<path d="M-0.59375 46.5382L21.7063 -63.0703C22.0252 -63.0054 22.3437 -62.9392 22.662 -62.8715L-0.59375 46.5382Z" fill="#F40535" style="fill:#F40535;fill:color(display-p3 0.9569 0.0196 0.2078);fill-opacity:1;"/>
<path d="M-0.59375 46.5386L22.662 -62.8711C22.9803 -62.8034 23.2982 -62.7344 23.6159 -62.6639L-0.59375 46.5386Z" fill="#ED1633" style="fill:#ED1633;fill:color(display-p3 0.9294 0.0863 0.2000);fill-opacity:1;"/>
<path d="M-0.59375 46.5385L23.6159 -62.6641C23.9336 -62.5937 24.2509 -62.5219 24.568 -62.4487L-0.59375 46.5385Z" fill="#C8382C" style="fill:#C8382C;fill:color(display-p3 0.7843 0.2196 0.1725);fill-opacity:1;"/>
<path d="M-0.59375 46.538L24.568 -62.4492C24.885 -62.376 25.2017 -62.3014 25.518 -62.2254L-0.59375 46.538Z" fill="#A35925" style="fill:#A35925;fill:color(display-p3 0.6392 0.3490 0.1451);fill-opacity:1;"/>
<path d="M-0.59375 46.5368L25.518 -62.2266C25.8344 -62.1506 26.1505 -62.0733 26.4662 -61.9945L-0.59375 46.5368Z" fill="#7F7B1D" style="fill:#7F7B1D;fill:color(display-p3 0.4980 0.4824 0.1137);fill-opacity:1;"/>
<path d="M-0.59375 46.5392L26.4662 -61.9922C26.7819 -61.9135 27.0972 -61.8334 27.4122 -61.752L-0.59375 46.5392Z" fill="#5A9D16" style="fill:#5A9D16;fill:color(display-p3 0.3529 0.6157 0.0863);fill-opacity:1;"/>
<path d="M-0.59375 46.5373L27.4122 -61.7539C27.7272 -61.6724 28.0419 -61.5896 28.3562 -61.5054L-0.59375 46.5373Z" fill="#36BF0F" style="fill:#36BF0F;fill:color(display-p3 0.2118 0.7490 0.0588);fill-opacity:1;"/>
<path d="M-0.59375 46.5387L28.3562 -61.5039C28.6705 -61.4197 28.9844 -61.3341 29.2979 -61.2472L-0.59375 46.5387Z" fill="#11E007" style="fill:#11E007;fill:color(display-p3 0.0667 0.8784 0.0275);fill-opacity:1;"/>
<path d="M-0.59375 46.5359L29.2979 -61.25C29.6114 -61.1631 29.9246 -61.0747 30.2373 -60.9851L-0.59375 46.5359Z" fill="#02ED04" style="fill:#02ED04;fill:color(display-p3 0.0078 0.9294 0.0157);fill-opacity:1;"/>
<path d="M-0.59375 46.5366L30.2373 -60.9844C30.5501 -60.8947 30.8626 -60.8037 31.1746 -60.7113L-0.59375 46.5366Z" fill="#06E703" style="fill:#06E703;fill:color(display-p3 0.0235 0.9059 0.0118);fill-opacity:1;"/>
<path d="M-0.59375 46.5369L31.1746 -60.7109C31.4865 -60.6185 31.7981 -60.5248 32.1092 -60.4296L-0.59375 46.5369Z" fill="#0AE203" style="fill:#0AE203;fill:color(display-p3 0.0392 0.8863 0.0118);fill-opacity:1;"/>
<path d="M-0.59375 46.5368L32.1092 -60.4297C32.4204 -60.3345 32.7311 -60.238 33.0415 -60.1402L-0.59375 46.5368Z" fill="#0EDC02" style="fill:#0EDC02;fill:color(display-p3 0.0549 0.8627 0.0078);fill-opacity:1;"/>
<path d="M-0.59375 46.5364L33.0415 -60.1406C33.3518 -60.0428 33.6616 -59.9436 33.9711 -59.8431L-0.59375 46.5364Z" fill="#11D702" style="fill:#11D702;fill:color(display-p3 0.0667 0.8431 0.0078);fill-opacity:1;"/>
<path d="M-0.59375 46.5357L33.9711 -59.8438C34.2805 -59.7432 34.5895 -59.6414 34.898 -59.5381L-0.59375 46.5357Z" fill="#15D102" style="fill:#15D102;fill:color(display-p3 0.0824 0.8196 0.0078);fill-opacity:1;"/>
<path d="M-0.59375 46.5387L34.898 -59.5352C35.2065 -59.4319 35.5146 -59.3273 35.8223 -59.2213L-0.59375 46.5387Z" fill="#19CB01" style="fill:#19CB01;fill:color(display-p3 0.0980 0.7961 0.0039);fill-opacity:1;"/>
<path d="M-0.59375 46.5374L35.8223 -59.2227C36.13 -59.1167 36.4371 -59.0094 36.7439 -58.9008L-0.59375 46.5374Z" fill="#1DC601" style="fill:#1DC601;fill:color(display-p3 0.1137 0.7765 0.0039);fill-opacity:1;"/>
<path d="M-0.59375 46.5359L36.7439 -58.9023C37.0506 -58.7938 37.3568 -58.6838 37.6626 -58.5726L-0.59375 46.5359Z" fill="#21C000" style="fill:#21C000;fill:color(display-p3 0.1294 0.7529 0.0000);fill-opacity:1;"/>
<path d="M-0.59375 46.5381L37.6626 -58.5703C37.9683 -58.459 38.2736 -58.3463 38.5784 -58.2324L-0.59375 46.5381Z" fill="#1DC926" style="fill:#1DC926;fill:color(display-p3 0.1137 0.7882 0.1490);fill-opacity:1;"/>
<path d="M-0.59375 46.5361L38.5784 -58.2344C38.8831 -58.1205 39.1874 -58.0052 39.4911 -57.8887L-0.59375 46.5361Z" fill="#0DE67D" style="fill:#0DE67D;fill:color(display-p3 0.0510 0.9020 0.4902);fill-opacity:1;"/>
<path d="M-0.59375 46.538L39.4911 -57.8867C39.7949 -57.7701 40.0981 -57.6522 40.4009 -57.533L-0.59375 46.538Z" fill="#00FFCC" style="fill:#00FFCC;fill:color(display-p3 0.0000 1.0000 0.8000);fill-opacity:1;"/>
<path d="M-0.59375 46.5358L40.4009 -57.5352C40.7036 -57.4159 41.0058 -57.2953 41.3075 -57.1733L-0.59375 46.5358Z" fill="#00FED1" style="fill:#00FED1;fill:color(display-p3 0.0000 0.9961 0.8196);fill-opacity:1;"/>
<path d="M-0.59375 46.5373L41.3075 -57.1719C41.6092 -57.05 41.9104 -56.9268 42.211 -56.8023L-0.59375 46.5373Z" fill="#00FDD5" style="fill:#00FDD5;fill:color(display-p3 0.0000 0.9922 0.8353);fill-opacity:1;"/>
<path d="M-0.59375 46.5388L42.211 -56.8008C42.5116 -56.6763 42.8116 -56.5504 43.1111 -56.4233L-0.59375 46.5388Z" fill="#00FCD9" style="fill:#00FCD9;fill:color(display-p3 0.0000 0.9882 0.8510);fill-opacity:1;"/>
<path d="M-0.59375 46.5363L43.1111 -56.4258C43.4106 -56.2987 43.7096 -56.1703 44.008 -56.0405L-0.59375 46.5363Z" fill="#00FCDD" style="fill:#00FCDD;fill:color(display-p3 0.0000 0.9882 0.8667);fill-opacity:1;"/>
<path d="M-0.59375 46.5378L44.008 -56.0391C44.3064 -55.9093 44.6042 -55.7783 44.9014 -55.6459L-0.59375 46.5378Z" fill="#00FBE2" style="fill:#00FBE2;fill:color(display-p3 0.0000 0.9843 0.8863);fill-opacity:1;"/>
<path d="M-0.59375 46.5392L44.9014 -55.6445C45.1986 -55.5122 45.4953 -55.3785 45.7914 -55.2436L-0.59375 46.5392Z" fill="#00FAE6" style="fill:#00FAE6;fill:color(display-p3 0.0000 0.9804 0.9020);fill-opacity:1;"/>
<path d="M-0.59375 46.5367L45.7914 -55.2461C46.0874 -55.1112 46.383 -54.9749 46.6779 -54.8374L-0.59375 46.5367Z" fill="#00F9EA" style="fill:#00F9EA;fill:color(display-p3 0.0000 0.9765 0.9176);fill-opacity:1;"/>
<path d="M-0.59375 46.5382L46.6779 -54.8359C46.9727 -54.6985 47.267 -54.5597 47.5606 -54.4196L-0.59375 46.5382Z" fill="#00F8EF" style="fill:#00F8EF;fill:color(display-p3 0.0000 0.9725 0.9373);fill-opacity:1;"/>
<path d="M-0.59375 46.5359L47.5606 -54.4219C47.8543 -54.2818 48.1474 -54.1404 48.4398 -53.9978L-0.59375 46.5359Z" fill="#00F7F3" style="fill:#00F7F3;fill:color(display-p3 0.0000 0.9686 0.9529);fill-opacity:1;"/>
<path d="M-0.59375 46.5376L48.4398 -53.9961C48.7322 -53.8535 49.0241 -53.7096 49.3152 -53.5644L-0.59375 46.5376Z" fill="#00F7F7" style="fill:#00F7F7;fill:color(display-p3 0.0000 0.9686 0.9686);fill-opacity:1;"/>
<path d="M-0.59375 46.5395L49.3152 -53.5625C49.6064 -53.4173 49.897 -53.2708 50.1869 -53.1231L-0.59375 46.5395Z" fill="#00DFFA" style="fill:#00DFFA;fill:color(display-p3 0.0000 0.8745 0.9804);fill-opacity:1;"/>
<path d="M-0.59375 46.5376L50.1869 -53.125C50.4768 -52.9773 50.766 -52.8283 51.0546 -52.6781L-0.59375 46.5376Z" fill="#0095FA" style="fill:#0095FA;fill:color(display-p3 0.0000 0.5843 0.9804);fill-opacity:1;"/>
<path d="M-0.59375 46.536L51.0546 -52.6797C51.3433 -52.5295 51.6312 -52.378 51.9186 -52.2253L-0.59375 46.536Z" fill="#004BFA" style="fill:#004BFA;fill:color(display-p3 0.0000 0.2937 0.9790);fill-opacity:1;"/>
<path d="M-0.59375 46.5386L51.9186 -52.2227C52.2058 -52.0699 52.4924 -51.9159 52.7783 -51.7606L-0.59375 46.5386Z" fill="#0D12F4" style="fill:#0D12F4;fill:color(display-p3 0.0510 0.0706 0.9569);fill-opacity:1;"/>
<path d="M-0.59375 46.5375L52.7783 -51.7617C53.0643 -51.6065 53.3496 -51.45 53.6342 -51.2922L-0.59375 46.5375Z" fill="#4A15D9" style="fill:#4A15D9;fill:color(display-p3 0.2902 0.0824 0.8510);fill-opacity:1;"/>
<path d="M-0.59375 46.5368L53.6342 -51.293C53.9188 -51.1352 54.2026 -50.9762 54.4858 -50.816L-0.59375 46.5368Z" fill="#8718BD" style="fill:#8718BD;fill:color(display-p3 0.5294 0.0941 0.7412);fill-opacity:1;"/>
<path d="M-0.59375 46.5364L54.4858 -50.8164C54.769 -50.6562 55.0514 -50.4947 55.3332 -50.332L-0.59375 46.5364Z" fill="#BC1BA3" style="fill:#BC1BA3;fill:color(display-p3 0.7373 0.1059 0.6392);fill-opacity:1;"/>
<path d="M-0.59375 46.5363L55.3332 -50.332C55.615 -50.1693 55.8961 -50.0054 56.1764 -49.8403L-0.59375 46.5363Z" fill="#C41B8F" style="fill:#C41B8F;fill:color(display-p3 0.7686 0.1059 0.5608);fill-opacity:1;"/>
<path d="M-0.59375 46.5368L56.1764 -49.8398C56.4568 -49.6747 56.7364 -49.5084 57.0154 -49.3409L-0.59375 46.5368Z" fill="#CC1A7C" style="fill:#CC1A7C;fill:color(display-p3 0.8000 0.1020 0.4863);fill-opacity:1;"/>
<path d="M-0.59375 46.5378L57.0154 -49.3398C57.2942 -49.1722 57.5724 -49.0034 57.8498 -48.8334L-0.59375 46.5378Z" fill="#D41A68" style="fill:#D41A68;fill:color(display-p3 0.8314 0.1020 0.4078);fill-opacity:1;"/>
<path d="M-0.59375 46.5392L57.8498 -48.832C58.1272 -48.662 58.4039 -48.4908 58.6798 -48.3184L-0.59375 46.5392Z" fill="#DD1A54" style="fill:#DD1A54;fill:color(display-p3 0.8667 0.1020 0.3294);fill-opacity:1;"/>
<path d="M-0.59375 46.5373L58.6798 -48.3203C58.9558 -48.1479 59.231 -47.9742 59.5054 -47.7994L-0.59375 46.5373Z" fill="#E51A40" style="fill:#E51A40;fill:color(display-p3 0.8980 0.1020 0.2510);fill-opacity:1;"/>
<path d="M-0.59375 46.5359L59.5054 -47.8008C59.7798 -47.626 60.0535 -47.45 60.3263 -47.2728L-0.59375 46.5359Z" fill="#ED1A2C" style="fill:#ED1A2C;fill:color(display-p3 0.9294 0.1020 0.1725);fill-opacity:1;"/>
<path d="M-0.59375 46.5391L60.3263 -47.2695C60.5992 -47.0923 60.8713 -46.9139 61.1426 -46.7343L-0.59375 46.5391Z" fill="#F51919" style="fill:#F51919;fill:color(display-p3 0.9608 0.0980 0.0980);fill-opacity:1;"/>
<path d="M-0.59375 46.5391L61.1426 -46.7344C61.4139 -46.5548 61.6844 -46.374 61.9542 -46.192L-0.59375 46.5391Z" fill="#FD1905" style="fill:#FD1905;fill:color(display-p3 0.9922 0.0980 0.0196);fill-opacity:1;"/>
<path d="M-0.59375 46.5358L61.9542 -46.1953C62.2239 -46.0134 62.4929 -45.8303 62.7611 -45.646L-0.59375 46.5358Z" fill="#FF161B" style="fill:#FF161B;fill:color(display-p3 1.0000 0.0863 0.1059);fill-opacity:1;"/>
<path d="M-0.59375 46.5373L62.761 -45.6445C63.0292 -45.4602 63.2965 -45.2747 63.563 -45.0881L-0.59375 46.5373Z" fill="#FE133F" style="fill:#FE133F;fill:color(display-p3 0.9961 0.0745 0.2471);fill-opacity:1;"/>
<path d="M-0.59375 46.5394L63.563 -45.0859C63.8296 -44.8993 64.0953 -44.7115 64.3603 -44.5226L-0.59375 46.5394Z" fill="#FD0F63" style="fill:#FD0F63;fill:color(display-p3 0.9922 0.0588 0.3882);fill-opacity:1;"/>
<path d="M-0.59375 46.5386L64.3603 -44.5234C64.6251 -44.3345 64.8891 -44.1444 65.1523 -43.9532L-0.59375 46.5386Z" fill="#FD0C87" style="fill:#FD0C87;fill:color(display-p3 0.9922 0.0471 0.5294);fill-opacity:1;"/>
<path d="M-0.59375 46.5387L65.1523 -43.9531C65.4156 -43.7619 65.6779 -43.5695 65.9395 -43.376L-0.59375 46.5387Z" fill="#FC08AB" style="fill:#FC08AB;fill:color(display-p3 0.9882 0.0314 0.6706);fill-opacity:1;"/>
<path d="M-0.59375 46.5357L65.9395 -43.3789C66.2011 -43.1854 66.4618 -42.9907 66.7216 -42.7949L-0.59375 46.5357Z" fill="#FC05CF" style="fill:#FC05CF;fill:color(display-p3 0.9882 0.0196 0.8118);fill-opacity:1;"/>
<path d="M-0.59375 46.5376L66.7216 -42.793C66.9815 -42.5972 67.2405 -42.4002 67.4986 -42.2022L-0.59375 46.5376Z" fill="#FB01F3" style="fill:#FB01F3;fill:color(display-p3 0.9843 0.0039 0.9529);fill-opacity:1;"/>
<path d="M-0.59375 46.5366L67.4986 -42.2031C67.7568 -42.0051 68.014 -41.8059 68.2704 -41.6056L-0.59375 46.5366Z" fill="#FC40C2" style="fill:#FC40C2;fill:color(display-p3 0.9882 0.2510 0.7608);fill-opacity:1;"/>
<path d="M-0.59375 46.5367L68.2704 -41.6055C68.5268 -41.4051 68.7824 -41.2037 69.037 -41.0011L-0.59375 46.5367Z" fill="#FEA067" style="fill:#FEA067;fill:color(display-p3 0.9961 0.6275 0.4039);fill-opacity:1;"/>
<path d="M-0.59375 46.5379L69.037 -41C69.2916 -40.7975 69.5453 -40.5938 69.7982 -40.3891L-0.59375 46.5379Z" fill="#FDE524" style="fill:#FDE524;fill:color(display-p3 0.9922 0.8980 0.1412);fill-opacity:1;"/>
<path d="M-0.59375 46.5363L69.7982 -40.3906C70.0511 -40.1858 70.3031 -39.9799 70.5542 -39.7729L-0.59375 46.5363Z" fill="#F8EE18" style="fill:#F8EE18;fill:color(display-p3 0.9725 0.9333 0.0941);fill-opacity:1;"/>
<path d="M-0.59375 46.5358L70.5542 -39.7734C70.8052 -39.5665 71.0554 -39.3584 71.3047 -39.1493L-0.59375 46.5358Z" fill="#F3F60C" style="fill:#F3F60C;fill:color(display-p3 0.9529 0.9647 0.0471);fill-opacity:1;"/>
<path d="M-0.59375 46.5366L71.3047 -39.1484C71.5539 -38.9393 71.8022 -38.7291 72.0496 -38.5178L-0.59375 46.5366Z" fill="#EDFF00" style="fill:#EDFF00;fill:color(display-p3 0.9294 1.0000 0.0000);fill-opacity:1;"/>
<path d="M-0.59375 46.5388L72.0496 -38.5156C72.297 -38.3043 72.5435 -38.092 72.789 -37.8785L-0.59375 46.5388Z" fill="#D3FF02" style="fill:#D3FF02;fill:color(display-p3 0.8275 1.0000 0.0078);fill-opacity:1;"/>
<path d="M-0.59375 46.5384L72.789 -37.8789C73.0346 -37.6655 73.2792 -37.4509 73.5229 -37.2353L-0.59375 46.5384Z" fill="#B9FF04" style="fill:#B9FF04;fill:color(display-p3 0.7255 1.0000 0.0157);fill-opacity:1;"/>
<path d="M-0.59375 46.5394L73.5229 -37.2344C73.7666 -37.0188 74.0093 -36.8021 74.2511 -36.5843L-0.59375 46.5394Z" fill="#9FFF06" style="fill:#9FFF06;fill:color(display-p3 0.6235 1.0000 0.0235);fill-opacity:1;"/>
<path d="M-0.59375 46.5378L74.2511 -36.5859C74.493 -36.3682 74.7338 -36.1494 74.9738 -35.9296L-0.59375 46.5378Z" fill="#84FF08" style="fill:#84FF08;fill:color(display-p3 0.5176 1.0000 0.0314);fill-opacity:1;"/>
<path d="M-0.59375 46.5377L74.9738 -35.9297C75.2136 -35.7099 75.4525 -35.489 75.6905 -35.2671L-0.59375 46.5377Z" fill="#6AFF09" style="fill:#6AFF09;fill:color(display-p3 0.4157 1.0000 0.0353);fill-opacity:1;"/>
<path d="M-0.59375 46.5392L75.6905 -35.2656C75.9285 -35.0438 76.1655 -34.8208 76.4015 -34.5969L-0.59375 46.5392Z" fill="#50FF0B" style="fill:#50FF0B;fill:color(display-p3 0.3137 1.0000 0.0431);fill-opacity:1;"/>
<path d="M-0.59375 46.5384L76.4015 -34.5977C76.6375 -34.3737 76.8725 -34.1486 77.1066 -33.9226L-0.59375 46.5384Z" fill="#36FF0D" style="fill:#36FF0D;fill:color(display-p3 0.2118 1.0000 0.0510);fill-opacity:1;"/>
<path d="M-0.59375 46.5392L77.1066 -33.9219C77.3406 -33.6959 77.5737 -33.4688 77.8058 -33.2408L-0.59375 46.5392Z" fill="#1CFF0F" style="fill:#1CFF0F;fill:color(display-p3 0.1098 1.0000 0.0588);fill-opacity:1;"/>
<path d="M-0.59375 46.5378L77.8058 -33.2422C78.0378 -33.0141 78.2689 -32.785 78.4989 -32.5549L-0.59375 46.5378Z" fill="#01FF11" style="fill:#01FF11;fill:color(display-p3 0.0039 1.0000 0.0667);fill-opacity:1;"/>
<path d="M-0.59375 46.538L78.4989 -32.5547C78.729 -32.3246 78.9581 -32.0936 79.1862 -31.8615L-0.59375 46.538Z" fill="#00E20F" style="fill:#00E20F;fill:color(display-p3 0.0000 0.8863 0.0588);fill-opacity:1;"/>
<path d="M-0.59375 46.5362L79.1862 -31.8633C79.4142 -31.6312 79.6413 -31.3981 79.8673 -31.1641L-0.59375 46.5362Z" fill="#06C80D" style="fill:#06C80D;fill:color(display-p3 0.0235 0.7843 0.0510);fill-opacity:1;"/>
<path d="M-0.59375 46.5363L79.8673 -31.1641C80.0933 -30.93 80.3184 -30.695 80.5423 -30.459L-0.59375 46.5363Z" fill="#35D10A" style="fill:#35D10A;fill:color(display-p3 0.2078 0.8196 0.0392);fill-opacity:1;"/>
<path d="M-0.59375 46.5382L80.5424 -30.457C80.7663 -30.221 80.9892 -29.984 81.2111 -29.746L-0.59375 46.5382Z" fill="#63DA08" style="fill:#63DA08;fill:color(display-p3 0.3882 0.8549 0.0314);fill-opacity:1;"/>
<path d="M-0.59375 46.5382L81.2111 -29.7461C81.433 -29.5081 81.6538 -29.2692 81.8736 -29.0294L-0.59375 46.5382Z" fill="#92E306" style="fill:#92E306;fill:color(display-p3 0.5725 0.8902 0.0235);fill-opacity:1;"/>
<path d="M-0.59375 46.5363L81.8736 -29.0312C82.0934 -28.7913 82.3122 -28.5505 82.53 -28.3086L-0.59375 46.5363Z" fill="#C1EB03" style="fill:#C1EB03;fill:color(display-p3 0.7569 0.9216 0.0118);fill-opacity:1;"/>
<path d="M-0.59375 46.5363L82.53 -28.3086C82.7477 -28.0668 82.9644 -27.824 83.18 -27.5804L-0.59375 46.5363Z" fill="#F0F401" style="fill:#F0F401;fill:color(display-p3 0.9412 0.9569 0.0039);fill-opacity:1;"/>
<path d="M-0.59375 46.5385L83.18 -27.5781C83.3956 -27.3344 83.6101 -27.0898 83.8236 -26.8443L-0.59375 46.5385Z" fill="#FFF000" style="fill:#FFF000;fill:color(display-p3 1.0000 0.9412 0.0000);fill-opacity:1;"/>
<path d="M-0.59375 46.539L83.8236 -26.8438C84.037 -26.5982 84.2494 -26.3517 84.4607 -26.1043L-0.59375 46.539Z" fill="#FFE600" style="fill:#FFE600;fill:color(display-p3 1.0000 0.9020 0.0000);fill-opacity:1;"/>
<path d="M-0.59375 46.5379L84.4607 -26.1055C84.672 -25.8581 84.8822 -25.6098 85.0913 -25.3606L-0.59375 46.5379Z" fill="#FFDC00" style="fill:#FFDC00;fill:color(display-p3 1.0000 0.8627 0.0000);fill-opacity:1;"/>
<path d="M-0.59375 46.5391L85.0913 -25.3594C85.3005 -25.1101 85.5085 -24.8599 85.7155 -24.6089L-0.59375 46.5391Z" fill="#FFD200" style="fill:#FFD200;fill:color(display-p3 1.0000 0.8235 0.0000);fill-opacity:1;"/>
<path d="M-0.59375 46.5385L85.7155 -24.6094C85.9225 -24.3583 86.1284 -24.1063 86.3332 -23.8534L-0.59375 46.5385Z" fill="#FFC800" style="fill:#FFC800;fill:color(display-p3 1.0000 0.7843 0.0000);fill-opacity:1;"/>
<path d="M-0.59375 46.5365L86.3332 -23.8555C86.5379 -23.6026 86.7416 -23.3489 86.9441 -23.0943L-0.59375 46.5365Z" fill="#FFBE00" style="fill:#FFBE00;fill:color(display-p3 1.0000 0.7451 0.0000);fill-opacity:1;"/>
<path d="M-0.59375 46.537L86.9441 -23.0938C87.1467 -22.8391 87.3481 -22.5835 87.5484 -22.3271L-0.59375 46.537Z" fill="#FFB400" style="fill:#FFB400;fill:color(display-p3 1.0000 0.7059 0.0000);fill-opacity:1;"/>
<path d="M-0.59375 46.536L87.5484 -22.3281C87.7487 -22.0717 87.9479 -21.8145 88.146 -21.5563L-0.59375 46.536Z" fill="#FFAA00" style="fill:#FFAA00;fill:color(display-p3 1.0000 0.6667 0.0000);fill-opacity:1;"/>
<path d="M-0.59375 46.5377L88.146 -21.5547C88.3441 -21.2966 88.541 -21.0376 88.7368 -20.7777L-0.59375 46.5377Z" fill="#FFA000" style="fill:#FFA000;fill:color(display-p3 1.0000 0.6275 0.0000);fill-opacity:1;"/>
<path d="M-0.59375 46.538L88.7368 -20.7773C88.9326 -20.5175 89.1273 -20.2568 89.3209 -19.9952L-0.59375 46.538Z" fill="#FF9700" style="fill:#FF9700;fill:color(display-p3 1.0000 0.5922 0.0000);fill-opacity:1;"/>
<path d="M-0.59375 46.5372L89.3209 -19.9961C89.5144 -19.7345 89.7068 -19.4721 89.898 -19.2089L-0.59375 46.5372Z" fill="#FF8D00" style="fill:#FF8D00;fill:color(display-p3 1.0000 0.5529 0.0000);fill-opacity:1;"/>
<path d="M-0.59375 46.539L89.898 -19.207C90.0892 -18.9438 90.2793 -18.6798 90.4683 -18.415L-0.59375 46.539Z" fill="#FF8300" style="fill:#FF8300;fill:color(display-p3 1.0000 0.5137 0.0000);fill-opacity:1;"/>
<path d="M-0.59375 46.536L90.4683 -18.418C90.6572 -18.153 90.845 -17.8873 91.0316 -17.6207L-0.59375 46.536Z" fill="#FF7900" style="fill:#FF7900;fill:color(display-p3 1.0000 0.4745 0.0000);fill-opacity:1;"/>
<path d="M-0.59375 46.5357L91.0316 -17.6211C91.2183 -17.3546 91.4038 -17.0872 91.5881 -16.8191L-0.59375 46.5357Z" fill="#FF6F00" style="fill:#FF6F00;fill:color(display-p3 1.0000 0.4353 0.0000);fill-opacity:1;"/>
<path d="M-0.59375 46.5384L91.5881 -16.8164C91.7724 -16.5483 91.9554 -16.2793 92.1374 -16.0095L-0.59375 46.5384Z" fill="#FF6500" style="fill:#FF6500;fill:color(display-p3 1.0000 0.3961 0.0000);fill-opacity:1;"/>
<path d="M-0.59375 46.5362L92.1374 -16.0117C92.3193 -15.742 92.5001 -15.4714 92.6797 -15.2001L-0.59375 46.5362Z" fill="#FF5B00" style="fill:#FF5B00;fill:color(display-p3 1.0000 0.3569 0.0000);fill-opacity:1;"/>
<path d="M-0.59375 46.5371L92.6797 -15.1992C92.8593 -14.9279 93.0377 -14.6559 93.2149 -14.383L-0.59375 46.5371Z" fill="#FF5100" style="fill:#FF5100;fill:color(display-p3 1.0000 0.3176 0.0000);fill-opacity:1;"/>
<path d="M-0.59375 46.5373L93.2149 -14.3828C93.3921 -14.1099 93.5681 -13.8363 93.7429 -13.5619L-0.59375 46.5373Z" fill="#FF4700" style="fill:#FF4700;fill:color(display-p3 1.0000 0.2784 0.0000);fill-opacity:1;"/>
<path d="M-0.59375 46.5366L93.7429 -13.5625C93.9178 -13.2881 94.0914 -13.0129 94.2639 -12.7369L-0.59375 46.5366Z" fill="#FF3D00" style="fill:#FF3D00;fill:color(display-p3 1.0000 0.2392 0.0000);fill-opacity:1;"/>
<path d="M-0.59375 46.5392L94.2638 -12.7344C94.4362 -12.4585 94.6075 -12.1818 94.7775 -11.9044L-0.59375 46.5392Z" fill="#FF3300" style="fill:#FF3300;fill:color(display-p3 1.0000 0.2000 0.0000);fill-opacity:1;"/>
<path d="M-0.59375 46.5373L94.7775 -11.9062C94.9475 -11.6288 95.1163 -11.3507 95.2839 -11.0718L-0.59375 46.5373Z" fill="#FF2900" style="fill:#FF2900;fill:color(display-p3 1.0000 0.1608 0.0000);fill-opacity:1;"/>
<path d="M-0.59375 46.5388L95.2839 -11.0703C95.4514 -10.7914 95.6178 -10.5118 95.7829 -10.2314L-0.59375 46.5388Z" fill="#FF1F00" style="fill:#FF1F00;fill:color(display-p3 1.0000 0.1216 0.0000);fill-opacity:1;"/>
<path d="M-0.59375 46.5358L95.7828 -10.2344C95.948 -9.95401 96.1119 -9.67293 96.2746 -9.39114L-0.59375 46.5358Z" fill="#FF1500" style="fill:#FF1500;fill:color(display-p3 1.0000 0.0824 0.0000);fill-opacity:1;"/>
<path d="M-0.59375 46.5363L96.2746 -9.39062C96.4373 -9.10886 96.5988 -8.82639 96.7591 -8.54322L-0.59375 46.5363Z" fill="#FF0B00" style="fill:#FF0B00;fill:color(display-p3 1.0000 0.0431 0.0000);fill-opacity:1;"/>
<path d="M-0.59375 46.5366L96.7591 -8.54297C96.9193 -8.25981 97.0783 -7.97594 97.236 -7.69139L-0.59375 46.5366Z" fill="#FF0100" style="fill:#FF0100;fill:color(display-p3 1.0000 0.0039 0.0000);fill-opacity:1;"/>
<path d="M-0.59375 46.5365L97.236 -7.69141C97.3938 -7.40679 97.5503 -7.1215 97.7055 -6.83552L-0.59375 46.5365Z" fill="#FF0000" style="fill:#FF0000;fill:color(display-p3 1.0000 0.0000 0.0000);fill-opacity:1;"/>
<path d="M-0.59375 46.5361L97.7055 -6.83594C97.8608 -6.55002 98.0148 -6.26343 98.1675 -5.97617L-0.59375 46.5361Z" fill="#FF0000" style="fill:#FF0000;fill:color(display-p3 1.0000 0.0000 0.0000);fill-opacity:1;"/>
<path d="M-0.59375 46.5357L98.1675 -5.97656C98.3202 -5.68925 98.4717 -5.40126 98.6219 -5.11263L-0.59375 46.5357Z" fill="#FF0000" style="fill:#FF0000;fill:color(display-p3 1.0000 0.0000 0.0000);fill-opacity:1;"/>
<path d="M-0.59375 46.539L98.6219 -5.10938C98.7722 -4.8208 98.9211 -4.53157 99.0688 -4.2417L-0.59375 46.539Z" fill="#FF0000" style="fill:#FF0000;fill:color(display-p3 1.0000 0.0000 0.0000);fill-opacity:1;"/>
<path d="M-0.59375 46.5385L99.0688 -4.24219C99.2166 -3.95226 99.3631 -3.66169 99.5083 -3.37049L-0.59375 46.5385Z" fill="#FF0000" style="fill:#FF0000;fill:color(display-p3 1.0000 0.0000 0.0000);fill-opacity:1;"/>
<path d="M-0.59375 46.5379L99.5083 -3.37109C99.6535 -3.07991 99.7973 -2.7881 99.94 -2.49566L-0.59375 46.5379Z" fill="#FF0000" style="fill:#FF0000;fill:color(display-p3 1.0000 0.0000 0.0000);fill-opacity:1;"/>
<path d="M-0.59375 46.5375L99.94 -2.49609C100.083 -2.20365 100.224 -1.91059 100.364 -1.61692L-0.59375 46.5375Z" fill="#FF0000" style="fill:#FF0000;fill:color(display-p3 1.0000 0.0000 0.0000);fill-opacity:1;"/>
<path d="M-0.59375 46.5372L100.364 -1.61719C100.504 -1.32354 100.643 -1.02928 100.78 -0.734419L-0.59375 46.5372Z" fill="#FF0000" style="fill:#FF0000;fill:color(display-p3 1.0000 0.0000 0.0000);fill-opacity:1;"/>
<path d="M-0.59375 46.5372L100.78 -0.734375C100.918 -0.439469 101.054 -0.143964 101.189 0.152131L-0.59375 46.5372Z" fill="#F40000" style="fill:#F40000;fill:color(display-p3 0.9584 0.0000 0.0000);fill-opacity:1;"/>
<path d="M-0.59375 46.5374L101.189 0.152344C101.324 0.448411 101.458 0.745066 101.59 1.0423L-0.59375 46.5374Z" fill="#E80000" style="fill:#E80000;fill:color(display-p3 0.9098 0.0000 0.0000);fill-opacity:1;"/>
<path d="M-0.59375 46.5381L101.59 1.04297C101.722 1.3402 101.853 1.638 101.983 1.93637L-0.59375 46.5381Z" fill="#DD0000" style="fill:#DD0000;fill:color(display-p3 0.8667 0.0000 0.0000);fill-opacity:1;"/>
<path d="M-0.59375 46.5392L101.983 1.9375C102.113 2.23589 102.241 2.53485 102.368 2.83436L-0.59375 46.5392Z" fill="#D10000" style="fill:#D10000;fill:color(display-p3 0.8196 0.0000 0.0000);fill-opacity:1;"/>
<path d="M-0.59375 46.5369L102.368 2.83203C102.495 3.13153 102.621 3.43159 102.746 3.73219L-0.59375 46.5369Z" fill="#C50000" style="fill:#C50000;fill:color(display-p3 0.7725 0.0000 0.0000);fill-opacity:1;"/>
<path d="M-0.59375 46.5391L102.746 3.73438C102.87 4.03499 102.994 4.33615 103.115 4.63784L-0.59375 46.5391Z" fill="#B90000" style="fill:#B90000;fill:color(display-p3 0.7255 0.0000 0.0000);fill-opacity:1;"/>
<path d="M-0.59375 46.538L103.115 4.63672C103.237 4.9384 103.358 5.24061 103.477 5.54335L-0.59375 46.538Z" fill="#AE0000" style="fill:#AE0000;fill:color(display-p3 0.6824 0.0000 0.0000);fill-opacity:1;"/>
<path d="M-0.59375 46.5376L103.477 5.54297C103.596 5.84572 103.714 6.14899 103.831 6.45276L-0.59375 46.5376Z" fill="#A20000" style="fill:#A20000;fill:color(display-p3 0.6353 0.0000 0.0000);fill-opacity:1;"/>
<path d="M-0.59375 46.538L103.831 6.45312C103.948 6.75684 104.063 7.06107 104.177 7.36579L-0.59375 46.538Z" fill="#960000" style="fill:#960000;fill:color(display-p3 0.5882 0.0000 0.0000);fill-opacity:1;"/>
<path d="M-0.59375 46.5393L104.177 7.36719C104.291 7.67197 104.403 7.97725 104.515 8.28302L-0.59375 46.5393Z" fill="#8B0000" style="fill:#8B0000;fill:color(display-p3 0.5451 0.0000 0.0000);fill-opacity:1;"/>
<path d="M-0.59375 46.5376L104.515 8.28125C104.626 8.587 104.736 8.89324 104.844 9.19996L-0.59375 46.5376Z" fill="#7F0000" style="fill:#7F0000;fill:color(display-p3 0.4980 0.0000 0.0000);fill-opacity:1;"/>
<path d="M-0.59375 46.5368L104.844 9.19922C104.953 9.50594 105.06 9.81314 105.166 10.1208L-0.59375 46.5368Z" fill="#730000" style="fill:#730000;fill:color(display-p3 0.4510 0.0000 0.0000);fill-opacity:1;"/>
<path d="M-0.59375 46.5371L105.166 10.1211C105.272 10.4287 105.377 10.7368 105.48 11.0454L-0.59375 46.5371Z" fill="#680000" style="fill:#680000;fill:color(display-p3 0.4078 0.0000 0.0000);fill-opacity:1;"/>
<path d="M-0.59375 46.5386L105.48 11.0469C105.583 11.3554 105.685 11.6644 105.786 11.9738L-0.59375 46.5386Z" fill="#5C0000" style="fill:#5C0000;fill:color(display-p3 0.3608 0.0000 0.0000);fill-opacity:1;"/>
<path d="M-0.59375 46.5375L105.786 11.9727C105.886 12.2821 105.985 12.592 106.083 12.9023L-0.59375 46.5375Z" fill="#500000" style="fill:#500000;fill:color(display-p3 0.3137 0.0000 0.0000);fill-opacity:1;"/>
<path d="M-0.59375 46.5375L106.083 12.9023C106.181 13.2127 106.278 13.5234 106.373 13.8346L-0.59375 46.5375Z" fill="#450000" style="fill:#450000;fill:color(display-p3 0.2706 0.0000 0.0000);fill-opacity:1;"/>
<path d="M-0.59375 46.5389L106.373 13.8359C106.468 14.1471 106.562 14.4586 106.654 14.7706L-0.59375 46.5389Z" fill="#390000" style="fill:#390000;fill:color(display-p3 0.2235 0.0000 0.0000);fill-opacity:1;"/>
<path d="M-0.59375 46.5378L106.654 14.7695C106.746 15.0815 106.838 15.394 106.927 15.7068L-0.59375 46.5378Z" fill="#2D0000" style="fill:#2D0000;fill:color(display-p3 0.1765 0.0000 0.0000);fill-opacity:1;"/>
<path d="M-0.59375 46.5381L106.927 15.707C107.017 16.0198 107.105 16.3329 107.192 16.6464L-0.59375 46.5381Z" fill="#220000" style="fill:#220000;fill:color(display-p3 0.1333 0.0000 0.0000);fill-opacity:1;"/>
<path d="M-0.59375 46.5362L107.192 16.6445C107.279 16.9581 107.365 17.272 107.449 17.5862L-0.59375 46.5362Z" fill="#160000" style="fill:#160000;fill:color(display-p3 0.0863 0.0000 0.0000);fill-opacity:1;"/>
<path d="M-0.59375 46.5359L107.449 17.5859C107.533 17.9002 107.616 18.2149 107.697 18.5299L-0.59375 46.5359Z" fill="#0A0000" style="fill:#0A0000;fill:color(display-p3 0.0392 0.0000 0.0000);fill-opacity:1;"/>
<path d="M-0.59375 46.5372L107.697 18.5312C107.779 18.8462 107.859 19.1616 107.938 19.4773L-0.59375 46.5372Z" fill="white" style="fill:white;fill-opacity:1;"/>
<path d="M-0.59375 46.5365L107.938 19.4766C108.016 19.7923 108.094 20.1083 108.17 20.4247L-0.59375 46.5365Z" fill="white" style="fill:white;fill-opacity:1;"/>
<path d="M-0.59375 46.5375L108.17 20.4258C108.246 20.7421 108.32 21.0588 108.393 21.3758L-0.59375 46.5375Z" fill="white" style="fill:white;fill-opacity:1;"/>
<path d="M-0.59375 46.5367L108.393 21.375C108.467 21.692 108.538 22.0094 108.609 22.3271L-0.59375 46.5367Z" fill="white" style="fill:white;fill-opacity:1;"/>
<path d="M-0.59375 46.5378L108.609 22.3281C108.679 22.6458 108.748 22.9638 108.816 23.2821L-0.59375 46.5378Z" fill="white" style="fill:white;fill-opacity:1;"/>
<path d="M-0.59375 46.537L108.816 23.2812C108.884 23.5995 108.95 23.9181 109.015 24.2369L-0.59375 46.537Z" fill="white" style="fill:white;fill-opacity:1;"/>
<path d="M-0.59375 46.5384L109.015 24.2383C109.08 24.5571 109.143 24.8763 109.205 25.1957L-0.59375 46.5384Z" fill="white" style="fill:white;fill-opacity:1;"/>
<path d="M-0.59375 46.538L109.205 25.1953C109.267 25.5147 109.328 25.8344 109.387 26.1543L-0.59375 46.538Z" fill="white" style="fill:white;fill-opacity:1;"/>
<path d="M-0.59375 46.5361L109.387 26.1523C109.447 26.4723 109.504 26.7925 109.561 27.1129L-0.59375 46.5361Z" fill="white" style="fill:white;fill-opacity:1;"/>
<path d="M-0.59375 46.5365L109.561 27.1133C109.617 27.4337 109.672 27.7544 109.726 28.0753L-0.59375 46.5365Z" fill="white" style="fill:white;fill-opacity:1;"/>
<path d="M-0.59375 46.5394L109.726 28.0781C109.78 28.399 109.832 28.7202 109.883 29.0415L-0.59375 46.5394Z" fill="white" style="fill:white;fill-opacity:1;"/>
<path d="M-0.59375 46.5369L109.883 29.0391C109.934 29.3604 109.984 29.682 110.032 30.0038L-0.59375 46.5369Z" fill="white" style="fill:white;fill-opacity:1;"/>
<path d="M-0.59375 46.537L110.032 30.0039C110.08 30.3257 110.126 30.6477 110.172 30.9699L-0.59375 46.537Z" fill="white" style="fill:white;fill-opacity:1;"/>
<path d="M-0.59375 46.5359L110.172 30.9688C110.217 31.291 110.261 31.6134 110.303 31.936L-0.59375 46.5359Z" fill="white" style="fill:white;fill-opacity:1;"/>
<path d="M-0.59375 46.5373L110.303 31.9375C110.346 32.2601 110.387 32.5829 110.427 32.9058L-0.59375 46.5373Z" fill="white" style="fill:white;fill-opacity:1;"/>
<path d="M-0.59375 46.5378L110.427 32.9062C110.466 33.2292 110.504 33.5523 110.541 33.8756L-0.59375 46.5378Z" fill="white" style="fill:white;fill-opacity:1;"/>
<path d="M-0.59375 46.5372L110.541 33.875C110.578 34.1983 110.613 34.5217 110.647 34.8453L-0.59375 46.5372Z" fill="white" style="fill:white;fill-opacity:1;"/>
<path d="M-0.59375 46.5396L110.647 34.8477C110.681 35.1712 110.714 35.495 110.745 35.8188L-0.59375 46.5396Z" fill="white" style="fill:white;fill-opacity:1;"/>
<path d="M-0.59375 46.5371L110.745 35.8164C110.776 36.1403 110.806 36.4643 110.835 36.7884L-0.59375 46.5371Z" fill="white" style="fill:white;fill-opacity:1;"/>
<path d="M-0.59375 46.5378L110.835 36.7891C110.863 37.1132 110.89 37.4375 110.915 37.7618L-0.59375 46.5378Z" fill="white" style="fill:white;fill-opacity:1;"/>
<path d="M-0.59375 46.5377L110.915 37.7617C110.941 38.0861 110.965 38.4105 110.988 38.735L-0.59375 46.5377Z" fill="white" style="fill:white;fill-opacity:1;"/>
<path d="M-0.59375 46.537L110.988 38.7344C111.01 39.059 111.032 39.3837 111.052 39.7084L-0.59375 46.537Z" fill="white" style="fill:white;fill-opacity:1;"/>
<path d="M-0.59375 46.5395L111.052 39.7109C111.071 40.0357 111.09 40.3606 111.107 40.6856L-0.59375 46.5395Z" fill="white" style="fill:white;fill-opacity:1;"/>
<path d="M-0.59375 46.5375L111.107 40.6836C111.124 41.0085 111.14 41.3335 111.154 41.6585L-0.59375 46.5375Z" fill="white" style="fill:white;fill-opacity:1;"/>
<path d="M-0.59375 46.5392L111.154 41.6602C111.168 41.9852 111.181 42.3103 111.192 42.6355L-0.59375 46.5392Z" fill="white" style="fill:white;fill-opacity:1;"/>
<path d="M-0.59375 46.5365L111.192 42.6328C111.203 42.958 111.213 43.2832 111.222 43.6084L-0.59375 46.5365Z" fill="white" style="fill:white;fill-opacity:1;"/>
<path d="M-0.59375 46.5374L111.222 43.6094C111.23 43.9346 111.238 44.26 111.243 44.5853L-0.59375 46.5374Z" fill="white" style="fill:white;fill-opacity:1;"/>
<path d="M-0.59375 46.5381L111.243 44.5859C111.249 44.9113 111.253 45.2366 111.256 45.562L-0.59375 46.5381Z" fill="white" style="fill:white;fill-opacity:1;"/>
<path d="M-0.59375 46.5386L111.256 45.5625C111.259 45.8878 111.26 46.2132 111.26 46.5386H-0.59375Z" fill="white" style="fill:white;fill-opacity:1;"/>
</g>
</g>
<rect x="0.25" y="0.25" width="45.5" height="45.5" rx="22.75" stroke="black" style="stroke:black;stroke-opacity:1;" stroke-width="0.5"/>
<defs>
<clipPath id="clip0_744_14446">
<rect width="46" height="46" rx="23" fill="white" style="fill:white;fill-opacity:1;"/>
</clipPath>
</defs>
</svg>
